<?xml version="1.0" encoding="utf-8"?>
<svg width="256" height="77" viewBox="0 0 256 77" fill="none" xmlns="http://www.w3.org/2000/svg">
  <defs>
    <filter color-interpolation-filters="sRGB" x="-248" y="-68" width="250" height="70" id="filter_1">
      <feFlood flood-opacity="0" result="BackgroundImageFix_1" />
      <feColorMatrix type="matrix" values="0 0 0 0 0 0 0 0 0 0 0 0 0 0 0 0 0 0 1 0" in="SourceAlpha" />
      <feOffset dx="0" dy="4" />
      <feGaussianBlur stdDeviation="1" />
      <feColorMatrix type="matrix" values="0 0 0 0 0 0 0 0 0 0 0 0 0 0 0 0 0 0 0.251 0" />
      <feBlend mode="normal" in2="BackgroundImageFix_1" result="Shadow_2" />
      <feBlend mode="normal" in="SourceGraphic" in2="Shadow_2" result="Shape_3" />
      <feColorMatrix type="matrix" values="0 0 0 0 0 0 0 0 0 0 0 0 0 0 0 0 0 0 1 0" in="SourceAlpha" result="HardAlpha_4" />
      <feOffset dx="0" dy="-2" />
      <feGaussianBlur stdDeviation="2" />
      <feComposite operator="arithmetic" k2="-1" k3="1" in2="HardAlpha_4" />
      <feColorMatrix type="matrix" values="0 0 0 0 0 0 0 0 0 0 0 0 0 0 0 0 0 0 0.251 0" />
      <feBlend mode="normal" in2="Shape_3" result="InnerShadow_5" />
    </filter>
    <clipPath id="clip_path_2">
      <rect width="250" height="70" />
    </clipPath>
  </defs>
  <g filter="url(#filter_1)" fill="#ffffff" transform="translate(3 0)">
    <path d="M9.74854 50.2466L2.60498 43.1299L2.60498 21.7261L9.74854 14.6094L14.4751 14.6094L14.4751 50.2466L9.74854 50.2466ZM24.2505 28.8965L24.2505 21.7261L16.355 21.7261L16.355 14.6094L29.0039 14.6094L36.1206 21.7261L36.1206 28.8965L24.2505 28.8965ZM16.355 50.2466L16.355 43.1299L24.2505 43.1299L24.2505 37.9199L36.1206 37.9199L36.1206 43.1299L29.0039 50.2466L16.355 50.2466ZM47.5073 50.2466L40.3906 43.1299L40.3906 28.8428L47.5073 21.7261L55.4834 21.7261L55.4834 28.8428L52.395 28.8428L52.395 43.5864L55.4834 43.5864L55.4834 50.2466L47.5073 50.2466ZM57.3633 50.2466L57.3633 43.5864L60.3174 43.5864L60.3174 28.8428L57.3633 28.8428L57.3633 21.7261L65.3125 21.7261L72.4292 28.8428L72.4292 43.1299L65.3125 50.2466L57.3633 50.2466ZM77.8003 18.1812L77.8003 10.6079L89.6973 10.6079L89.6973 18.1812L77.8003 18.1812ZM77.8003 50.2466L77.8003 21.7261L89.6973 21.7261L89.6973 50.2466L77.8003 50.2466ZM114.324 50.2466L114.324 28.8428L109.221 28.8428L109.221 25.7275L113.196 21.7261L119.802 21.7261L126.221 28.1445L126.221 50.2466L114.324 50.2466ZM95.3101 50.2466L95.3101 21.7261L107.288 21.7261L107.288 50.2466L95.3101 50.2466ZM131.833 50.2466L131.833 14.6094L143.704 14.6094L143.704 30.5347L154.661 30.5347L154.661 37.5439L143.704 37.5439L143.704 50.2466L131.833 50.2466ZM151.814 26.4258L151.814 21.7261L145.583 21.7261L145.583 14.6094L163.684 14.6094L163.684 26.4258L151.814 26.4258ZM174.775 50.2466L168.115 43.5864L168.115 10.8496L179.985 10.8496L179.985 43.1299L185.303 43.1299L185.303 50.2466L174.775 50.2466ZM188.66 18.1812L188.66 10.6079L200.557 10.6079L200.557 18.1812L188.66 18.1812ZM188.66 50.2466L188.66 21.7261L200.557 21.7261L200.557 50.2466L188.66 50.2466ZM219.919 50.2466L219.919 43.5864L225.156 43.5864L225.156 28.8428L219.919 28.8428L219.919 25.2441L223.411 21.7261L229.91 21.7261L237.053 28.8428L237.053 43.1299L229.91 50.2466L219.919 50.2466ZM206.169 59.7534L206.169 21.7261L218.04 21.7261L218.04 59.7534L206.169 59.7534Z" fill="#512DA8" clip-path="url(#clip_path_2)" />
  </g>
</svg>